<svg fill="none" xmlns="http://www.w3.org/2000/svg" viewBox="0 0 33 32"><path fill-rule="evenodd" clip-rule="evenodd" d="M13.821 11.118a1 1 0 0 1 1.027.05l6 4a1 1 0 0 1 0 1.664l-6 4A1 1 0 0 1 13.293 20v-8a1 1 0 0 1 .528-.882Zm1.472 2.75v4.263L18.49 16l-3.197-2.132Z" fill="#a259ff"/><path fill-rule="evenodd" clip-rule="evenodd" d="M16.291 5.05h-.079l-.236.001a54.204 54.204 0 0 0-3.76.183c-2.276.193-5.174.592-7.405 1.444l-.015.006A3.012 3.012 0 0 0 3 8.724v.003c-.312 1.219-.707 3.479-.707 7.273 0 3.794.395 6.054.706 7.273l.001.003a3.012 3.012 0 0 0 1.796 2.04l.015.006c2.231.852 5.13 1.25 7.406 1.443a54.277 54.277 0 0 0 3.995.185h.162c.055 0 .134 0 .236-.002a54.288 54.288 0 0 0 3.76-.183c2.276-.192 5.174-.591 7.405-1.444l.015-.005a3.012 3.012 0 0 0 1.796-2.04v-.003c.312-1.22.707-3.479.707-7.273 0-3.794-.395-6.054-.706-7.273l-.001-.004a3.013 3.013 0 0 0-1.796-2.039l-.015-.006c-2.231-.852-5.13-1.251-7.406-1.443a54.216 54.216 0 0 0-3.995-.185h-.083Zm-.003 19.9h.082c.049 0 .123 0 .219-.002a52.29 52.29 0 0 0 3.612-.176c2.236-.189 4.896-.57 6.852-1.316a1.013 1.013 0 0 0 .597-.68c.263-1.033.643-3.123.643-6.776 0-3.653-.38-5.743-.643-6.775a1.013 1.013 0 0 0-.597-.682c-1.956-.745-4.616-1.127-6.852-1.315a52.207 52.207 0 0 0-3.831-.178h-.154l-.219.001a52.205 52.205 0 0 0-3.612.176c-2.236.19-4.896.57-6.852 1.316a1.012 1.012 0 0 0-.597.682c-.263 1.032-.643 3.122-.643 6.775 0 3.653.38 5.743.643 6.775a1.013 1.013 0 0 0 .597.681c1.956.746 4.616 1.127 6.852 1.316a52.286 52.286 0 0 0 3.831.178H16.288Z" fill="#a259ff"/></svg>