<svg fill="none" xmlns="http://www.w3.org/2000/svg" viewBox="0 0 33 32"><path d="M12.293 19.5a1.5 1.5 0 1 0 0-3 1.5 1.5 0 0 0 0 3Z" fill="#a259ff"/><path d="M20.293 19.5a1.5 1.5 0 1 0 0-3 1.5 1.5 0 0 0 0 3Z" fill="#a259ff"/><path fill-rule="evenodd" clip-rule="evenodd" d="M16.285 10a20.861 20.861 0 0 0-6.394.954 1 1 0 0 1-.598-1.909 22.862 22.862 0 0 1 7-1.045 22.862 22.862 0 0 1 6.998 1.045 1 1 0 1 1-.598 1.909A20.86 20.86 0 0 0 16.299 10h-.014Z" fill="#a259ff"/><path fill-rule="evenodd" clip-rule="evenodd" d="M8.638 21.701a1 1 0 0 1 1.253-.655c2.069.648 4.226.97 6.394.954h.014a20.862 20.862 0 0 0 6.394-.954 1 1 0 0 1 .598 1.909A22.86 22.86 0 0 1 16.292 24a22.86 22.86 0 0 1-6.999-1.046 1 1 0 0 1-.655-1.253Z" fill="#a259ff"/><path fill-rule="evenodd" clip-rule="evenodd" d="M20.512 4.811c.43-.242.936-.318 1.418-.213 1.318.286 2.608.686 3.855 1.197a1.963 1.963 0 0 1 1.18 1.286L31.2 21.225a2.012 2.012 0 0 1-.596 2.088l-.005.004c-2.068 1.8-4.869 3.16-8.05 3.94a1.976 1.976 0 0 1-2.266-1.053l-1.509-2.991a1 1 0 0 1 1.786-.9l1.513 3 .001.002c2.938-.72 5.432-1.958 7.212-3.507l.656.755-.661-.75a.011.011 0 0 0 .004-.006V21.8L25.049 7.655l-.011-.005a21.051 21.051 0 0 0-3.532-1.097h-.003a.012.012 0 0 0-.014.006l-.985 2.98a1 1 0 1 1-1.899-.628l.99-2.996c.16-.468.487-.86.917-1.104Z" fill="#a259ff"/><path fill-rule="evenodd" clip-rule="evenodd" d="M11.091 6.553a.012.012 0 0 0-.009 0h-.002a21.05 21.05 0 0 0-3.543 1.102L3.301 21.8v.007c0 .002.002.004.003.005 1.78 1.547 4.273 2.783 7.208 3.503l.001-.003 1.512-3a1 1 0 1 1 1.786.9l-1.508 2.992a1.976 1.976 0 0 1-2.265 1.054c-3.182-.78-5.984-2.142-8.051-3.94l-.005-.005a2.013 2.013 0 0 1-.597-2.087L5.621 7.08a1.963 1.963 0 0 1 1.18-1.286 23.05 23.05 0 0 1 3.856-1.197 2.013 2.013 0 0 1 2.333 1.317l.003.009.987 2.987a1 1 0 0 1-1.899.628l-.984-2.98a.012.012 0 0 0-.006-.006Z" fill="#a259ff"/><path d="M12.293 19.5a1.5 1.5 0 1 0 0-3 1.5 1.5 0 0 0 0 3Z" fill="#a259ff"/><path d="M20.293 19.5a1.5 1.5 0 1 0 0-3 1.5 1.5 0 0 0 0 3Z" fill="#a259ff"/><path fill-rule="evenodd" clip-rule="evenodd" d="M16.285 10a20.861 20.861 0 0 0-6.394.954 1 1 0 0 1-.598-1.909 22.862 22.862 0 0 1 7-1.045 22.862 22.862 0 0 1 6.998 1.045 1 1 0 1 1-.598 1.909A20.86 20.86 0 0 0 16.299 10h-.014Z" fill="#a259ff"/><path fill-rule="evenodd" clip-rule="evenodd" d="M8.638 21.701a1 1 0 0 1 1.253-.655c2.069.648 4.226.97 6.394.954h.014a20.862 20.862 0 0 0 6.394-.954 1 1 0 0 1 .598 1.909A22.86 22.86 0 0 1 16.292 24a22.86 22.86 0 0 1-6.999-1.046 1 1 0 0 1-.655-1.253Z" fill="#a259ff"/><path fill-rule="evenodd" clip-rule="evenodd" d="M20.512 4.811c.43-.242.936-.318 1.418-.213 1.318.286 2.608.686 3.855 1.197a1.963 1.963 0 0 1 1.18 1.286L31.2 21.225a2.012 2.012 0 0 1-.596 2.088l-.005.004c-2.068 1.8-4.869 3.16-8.05 3.94a1.976 1.976 0 0 1-2.266-1.053l-1.509-2.991a1 1 0 0 1 1.786-.9l1.513 3 .001.002c2.938-.72 5.432-1.958 7.212-3.507l.656.755-.661-.75a.011.011 0 0 0 .004-.006V21.8L25.049 7.655l-.011-.005a21.051 21.051 0 0 0-3.532-1.097h-.003a.012.012 0 0 0-.014.006l-.985 2.98a1 1 0 1 1-1.899-.628l.99-2.996c.16-.468.487-.86.917-1.104Z" fill="#a259ff"/><path fill-rule="evenodd" clip-rule="evenodd" d="M11.091 6.553a.012.012 0 0 0-.009 0h-.002a21.05 21.05 0 0 0-3.543 1.102L3.301 21.8v.007c0 .002.002.004.003.005 1.78 1.547 4.273 2.783 7.208 3.503l.001-.003 1.512-3a1 1 0 1 1 1.786.9l-1.508 2.992a1.976 1.976 0 0 1-2.265 1.054c-3.182-.78-5.984-2.142-8.051-3.94l-.005-.005a2.013 2.013 0 0 1-.597-2.087L5.621 7.08a1.963 1.963 0 0 1 1.18-1.286 23.05 23.05 0 0 1 3.856-1.197 2.013 2.013 0 0 1 2.333 1.317l.003.009.987 2.987a1 1 0 0 1-1.899.628l-.984-2.98a.012.012 0 0 0-.006-.006Z" fill="#a259ff"/></svg>